<mxfile host="65bd71144e">
    <diagram id="HIP3nbAZw_EuaXWnEj3U" name="Page-1">
        <mxGraphModel dx="835" dy="529" grid="1" gridSize="10" guides="1" tooltips="1" connect="1" arrows="1" fold="1" page="1" pageScale="1" pageWidth="850" pageHeight="1100" math="0" shadow="0">
            <root>
                <mxCell id="0"/>
                <mxCell id="1" parent="0"/>
                <mxCell id="7" value="" style="swimlane;whiteSpace=wrap;html=1;" parent="1" vertex="1">
                    <mxGeometry x="45" y="40" width="760" height="480" as="geometry"/>
                </mxCell>
                <mxCell id="8" value="Random Number" style="text;html=1;strokeColor=none;fillColor=none;align=center;verticalAlign=middle;whiteSpace=wrap;rounded=0;" vertex="1" parent="7">
                    <mxGeometry x="325" y="30" width="110" height="30" as="geometry"/>
                </mxCell>
                <mxCell id="10" value="Enter your number :" style="text;html=1;strokeColor=none;fillColor=none;align=center;verticalAlign=middle;whiteSpace=wrap;rounded=0;" vertex="1" parent="7">
                    <mxGeometry x="20" y="180" width="140" height="30" as="geometry"/>
                </mxCell>
                <mxCell id="11" value="Number" style="text;html=1;strokeColor=none;fillColor=none;align=center;verticalAlign=middle;whiteSpace=wrap;rounded=0;" vertex="1" parent="7">
                    <mxGeometry x="10" y="225" width="60" height="30" as="geometry"/>
                </mxCell>
                <mxCell id="12" value="Put your number here" style="rounded=1;whiteSpace=wrap;html=1;" vertex="1" parent="7">
                    <mxGeometry x="70" y="225" width="190" height="30" as="geometry"/>
                </mxCell>
                <mxCell id="15" value="Checking" style="rounded=1;whiteSpace=wrap;html=1;" vertex="1" parent="7">
                    <mxGeometry x="40" y="300" width="90" height="40" as="geometry"/>
                </mxCell>
                <mxCell id="16" value="" style="shape=image;imageAspect=0;aspect=fixed;verticalLabelPosition=bottom;verticalAlign=top;image=data:image/jpeg,/9j/4AAQSkZJRgABAQAAAQABAAD/2wCEAAkGBxAREBUQDw8REBAVEBUWEBUWEhIVFhYQFhUWGBYVFRUYHiggGRolHRUVITEhJSkrLi4uFx83ODMsNyotLisBCgoKDg0OGhAQGyseICUtLS0tLS8tLS0tLS0tLS0tLS0tLS0tLS0tLy0tLS0tLi0tLS0tLS0tLS0tLS0tLS0tLf/AABEIAOEA4QMBEQACEQEDEQH/xAAcAAEAAQUBAQAAAAAAAAAAAAAABAEDBQYHAgj/xABAEAACAQIDBAgCBwYFBQAAAAAAAQIDEQQFIQYSMUEHEyJRYXGBkaGxFCMyQlJywWKCstHh8CRDc5LCFTM0g6L/xAAbAQEAAgMBAQAAAAAAAAAAAAAAAQQCAwUGB//EADcRAQACAQIEAwUGBAcBAAAAAAABAgMEEQUSITEGQVEyYXGBsRMikaHB0RQjQuEkMzRSYvDxJf/aAAwDAQACEQMRAD8A7iAAAAAAAAAAAAAAAAAAAAAAAAAAAAAAAAAAAAAAAAAAAAAAAAAAAAAAAAAAAAAAAAAAAAAAAAAAAAAAAAAAAAAAAAAAAAAAAAAAAAAAAAAAAAAAAAAAAAAAAAAAAAAAAAAAAAAAAAAAAAAAAAAADxUmopttJLi2YXvWkc1p2ghhsTnMm7Ukrfia4+SPMazxBMTy4I+c/stU0/TeyL/1Kv8Aj9N2NihTj2piesxPybJ09ZTKOdfjh6x/k/5nTw+I8c7Rkrt8Gq2mnylNpZnSl99Lwl2fmdbDxTS5fZvHz6NVsV48kuMk+GqL0WiesNb1cyAAAAAAAAAAAAAAAAAAAAAAAAAj4zFwpxvJ+S5t9yRoz6jHhpN8k7QmtZmdoa/i8XOq7y0jyiuC8X3s8TxHil9TO0dK+n6r2PDFe7XtrtoI5fhXiJQdSW8oU4XtvVHd6vkkk2/IrcP0VtZm+z32jvMs8l+Su7lFbpRzRyvGVCCv9hUU1buvJtv3PWV4Bo4jaYmffMqn8Rfdt+w3SNLF144XFUYQqTv1dSnvKLkk5bsoNu10nqmcbinAq6fFOXDado7xP6S3YtRzTtZ0KUTzlbrMwpByjrCTj5NouYtZlxzvS0w1zSJ7wl0c0rR+8pL9pfqrHVw8ez06W2t9WqdPWU2jna+/Ta8YtP4Ox1MPiHDbpeJj82udNby6plLMqUuE0n3Ps/M6mHiGmy+xeGm2O0d4S0y5ExLBUkAAAAAAAAAAAAAAAAAAwIGYZiqeiW9UtpHu8ZPkihreIYtJTe89fKGdMc3nowNSUpvem96XwS7kuSPC63iGTVX3tPy8oX8eKKwWKE2bdkLOspo4uhLD4iO9TlZ6O0oyXCUXyaN2k1mTS5Yy456sb0i8bS5ziuh97z6nHLc5KpRvJesZJP2R6aniiu338fX3T+6rOlnylsmx/R9h8BU6+VSWIxCi1GTioxhdWbhDV3adrtvRvgc3iPHMmqp9nEctfr8W3Hgis7z1bgcFYUJ5jYsTzI2YjPtpcFgbfSq8YSkrxgk5za79yOtvF2Re0nDtTquuKu8evaGu+WlO7E4TpHyqrLd+kOnfh1lKcIv96zS9S5fgWtpG/Lv8J3YRnpLa6NTRSpT7LV4uEuy0+DTTs0VMes1GCeWLTXby/szmlbRvskU8zrx++pfmin8rHXwcez19razTbT18kmjn7/zKfrF3+Dt8zq4ePYre3WY/NqnT28mWwuMp1VenJS7+9PxXFHZw6jHmrzUndotWa90g3IAAAAAAAAAAAAAXAxePzO3Yp2cucuS/mzgcU41TT70x9bflH9/c34sM36z2Ybx4t6t82/E8Rmz3zWm953mV+KxHSCUkuLSvwu0jCKXntEp3hWxjMTCQhLxVqxhFzk7RjFyk+6KV2/ZGeOk3tFY7yiZ2jdx/OOlvFSm/odGlSpfddSLnUkuTdmox8tfM9rp/DeCtY+2mZn3dI/dQtqbb9F7JelyspJY3D05w+9OlvRkl37jbT+BhqfDWK0TOG0xPpPZNdVP9TrdOalFSi04yipRffFq6fszxt6zW01nyXoneN3owgca6TNkcY8ZUxdOnPEUari04JzlTtFR3JQWtlbRpW8j3fBOI6edPXFMxW0evn73Pz4rRbdpeGyTF1J7lPCYiUm7WVGpx8bqy9TtX1WGkb2vER8YaeW3o7tsBktbBYCFDENOpvzm4p3VNTaapp87at8ryZ4DjGrx6nUzfH27fH3uhgpNa9WwSKNJlnKLWmXMdfNBlddwrwknxkoy8Yydrfr6HW4dltjz128+jVmrvWW8I9koKgAAAAAAAAAADzKVld6IxtaKxvIw2NzBz7MOzHm+b8u5Hj+K8e5t8Wnnp5z+kLmLT+dkDdPKzaZ7rkQ1/bnG4mhgK1XCJ9bFLVK7hBySnNLvUbvw48jqcHxYcuqrXN2+s+UNWeZinR884mcqknOrOVSb4znJyb9WfRq1ikcsRER8NnNmd249G+d42GNo0KdSpVpVJ2q05SlKKp/emr/Y3VrdHI4xpNPbTWvaIiYjpPv8AT5tuG9uaIh3RnzyXTeZxTTTSaaaafBp6NMmtprO8ImN3Ms56I4ym5YPEqlBvSnUg5KPhGcXe3mvU9bpvE+1YjNXefWFK2l/2vOTdEUYzUsZiVUgnd06cJR3vCU5O6XkvVE6nxPvXbDTafWZ/Qppev3pdPjFJJJJJKyS4JLgkeRtabTvK7EbKmKVUyd0Dk+8nc2eWyYjcWK1QuYqMZQ6jLlYY7ruXR+up/wCpH5l3RddRSPe15fZlvaPaueAAAAAAAAAAADD5hid6Tgn2U9fFnh/EHEr3yTgpO1Y7++f2XcGLaOaUXdPLTKzu8uA3Tu8OBnFphPSWvY7YnLasnOpgqW83duG9Tu/FQaTOni4xrMdeWuSdvx+rTOCk+SflOSYXCprC4enRv9pxj2pfmk9X6s0ajXZ9R/m3mWdMda9oTyo2KAGSNX2z22oZcowlCVbETjvQpxajaF2lKcnfdV00tG3Y7PDeEZNbvbflrHn7/SFfLminTzabQ6Yqm99ZgIbn7NZ73xjZ/A7VvC+Pl+7ed/g0xqp84dA2X2mw+YUnUoOScWlUhJJShJq6vbRp8mu487xDh2TRX5b9YntPqs48sXjozJzm1QQhaq1LFrFjYzKLUfuXawiZWTahJytfX0/9RF3h/wDqafFqzexLeEezUFQAAAAAAAAACjIka/Li/wAz+Z8o1kzOe8z/ALp+rp17QpcqslQhQlJYG7y4E7p3eXTG7Ld5cTKJN3mxO6Wk7f7Cf9QlGvRqxpYiMNx7ybhOCbaTtrFpt668fI9DwjjMaSs48kb1336d1bNg553hoK6LMzct3dw6X4uu09t2/wAD0M+IdFtvvP4K38PkdL2F2Rjl1KSdTra1Rp1ZJNRtG+7CKetlvN3fG/I8txbif8baNo2rHb91rDh5O7Z2cdvWqk7FjFj3RKLUm/X5F2lWMoGbY6OHoVK8/s06cpPxstF5t2XqWsGKcuSuOPPoxtbljdoHRpn2JxOMxCr1HNTo9Zu/djJTirQXJWlb0O5xbTY8WCnJG207K2C82tO7qWTr/EU/z/8AFnP4bH+Jo2ZvYlu6PYqIAAAAAAAAAAUZEjA1V2pL9p/NnyviFeXVZI/5S6VJ+7DwUmYAAo2SFwbK3BsaAUcBund4lTJiyd1txM92SliYFupI3YqbyxmUSc/fkXq18kSsuWtr6vXxN3LO27HdqPSrUcctkl96vSi/K7l84o6nBoidTv6RLTqPYYXody9qNfEvhJxpQ/d7c/i4L0LvHcvWmP5sNNXvLqeRr/E0/OX8Eijwv/U1+bLN7Et1PXqQAAAAAAAAAAAMHil25fm/qfMeMxtrcke/9IdDFP3IWTltoBUABSwN1GiU7vLJSKQ2NnpTI2RMF0EdVuql3r3M6xMsolj6sv6HTx16IlGq1FFOUnaKTlJ90Urt+yLFKzaYrHmifVyDZnPKuLzylXcnacqkYxu7RodVU3YW8Ek34nrNXpqYdBakR2iPx37qNLTOWJdRz3KaeLoSw9beUZWacbXjKLvGSvp/bPNaXU20+SMlf++q5ekXjaVcmyulhKEMPRvuQT1espSbvKUvFtjUZ7Z8k5L95/IrTljZmtn1/iYeUn/8v+Z0OEx/iI+EtOf2W5nrFIAAAAAAAAAAAGGxy+sfp8j5vx+vLrrfL6L+DrSEZnFblUEAAAAsEqMJeGjOE7rcokxKXjfaNkViSUavWZbw4YYzKPvXLW2yGG2wk1l+Ka4/Rantuu/wuXNBETqce/rDDL7Eud9EWW7+LniGuzRpWX+pU0VvKKn7o7/G83JhjH5zP5Qq6au9t3S9oM2hhMNUxE1vKC7MeG9Uk7Qj6v4XPO6TTzqMsY48/wAoW735a7tb6NtocRjIYj6TPflCrFwdkrRmn2UlyTjp5nS4tpMeC1Ps423iWnBebb7uhbN64lfkl+n8xwiP8R8pRn9luJ6qFMAAAAAAAAAAAGHzD/uPyX9/A8B4mpEauJ9awuaf2UZnnFkQAIAAADVukXaWeXYPraUU61SoqdK6uoycZSc2udlF6d7R2eC8PprM/LftEbz72rLkmsdHIst6Sc0pVFOeJ6+N+1TqRhutdycUnHzXsexzcD0WSnLFOX3x3VYy3id93a9mNoKOPw0cRR0+7Ug3eVOouMZe6afNNHhuIaG+jyzjt19J9YXsWTnjdkKpWx922UHEI6WHswlajwNtu6FKlOMouMoqUZJqSaunFqzT8LMVtNZ3jvB3Q8oyihhafVYakqcHJyaTbbk+bbbb008Ddn1OXPbmyTuilIrG0NM6Y8Q1h6FNcJV5SfjuQ0/jOvwGv3729zRqZ6Q9dEmDccLUqv8Aza3Z/LTW783L2J4zfmy1r6R9UaeNqzLpuy//AJH/AKpfOJjweP58/Azz91uB6dUAAAAAAAAAAABis0XbX5f1Z4fxVX+djn3St6btKGzyq0oBUIBECNVzChGapTr0o1Hwg6kFN+UW7liulzWrz1rMx67MeeEk0zXZk1rpB2eePwM6MLddCSqUL6XqRv2b8t6LkvVHV4Nro0mpi1vZnpLVlpzV6PnKrTlGTjOLjKLalFqzjJcU1ya7j6TWYmImOyi6R0G16ixWIppN0Xh1KfcqkZpQ9WpT9vA814opSdPS0999o+Hn+ixpZnndfqHjMfdflCxB0MM9GErUeBunugv36Lm+SXexEbz0S0LZ7beeLzSVCKisJKE1RVu03DVVHLj2knpyTXM7up4XTBpef+vpv8/L5K9M02v7mV242blj6dOEKipyhV3t5pvstNS0XPh7Ffh2rjTTbeN94TmpzMzlOXww9GFCmnuQgoq/F97fi3d+pUz5py5JvPmzpXaNmf2VX18vCk/4onV4NH82fg06js249KqAAAAAAAAAAAAxuarWL8/0PH+Kq/dx2+MLWmnux7PGrcCCQIQ87xE6eFr1KSvUhQqSpr9uMG46eaRZ0dK31FK27TMb/ixv0rOz5Zr1JVJOdSTnOTvKUtZSb1bbfFn1eKxSOWvSI7OZ8XUeiPbSoqscvxM3OE9MLKTu4TSb6tt8YtLTuatz08v4g4VS2OdTijaY9qPWPVYw5JieWXYTxHmutez/AGMwGNn1mIoXq85wlKEmuW84/a9TqaTi+q01eWlunpPVrthrbumZJkeGwVPqsLSVKLd5auUpS75Ser/Q06vXZtVbmyzu2Y8cV7JcyvTuzlErnQw9mErSRu80MDtxiXTy7EyTs+pcU/ztQ/5F7h1ItqaRPr9GvLO1Jc66JME542VW3ZpUJf7qjUYr2U/Y9BxnJFcHL6z9FbBH3nTNo83hg8NPETW9upKEb236ktIxvy14vuTPPaTT2z5YpH/kLWS0VruxHR3n9bGYerPEOLqQruN1FRW5KKklZdz3l7FnimlpgyVjH2mP7MMF5tE7ug7Iw+sqS7oxXu3/ACL3Ba9bT7oatRPZtKPQqwAAAAAAAAAAAMfmq0i/H9P6Hl/FNd9PSf8Al9YWNP7UsbI8Muw1zazbLC5coqu5zqzV4UqaTk43tvNtpRj4t62drnV4fwnPrd5p0iPOWvJmindZ2X2+wOPl1VOU6Vd3tSqpRlK34Gm4y01snfwNmu4HqdLHPP3q+sfqxpnrbo2k48TtO8N0uDdIWwVbCVZV8NTlUwc5OS3U26LfGE0td1cpcLaPhr9D4TxfHqccUyTtePz96hkxTWWI2CyPEYnHUHRhLdp16dSrUs92EYSUneXC7tZLjqW+JarFg01+eY6xMRHnO7GlZm0bPo+58wdKFGEvDMoZLUjZVEo1dF7F2YrVjfuxYjafLHicJVw6aUpwtFvgpJpq/hdIuaLNGHNW8+TDJXmrMMfsTs39AoOEpKdapLeqtcFZWUY31stdXzbLHEdZ/E3jbtHSGOLHyw1rpkxLUMNRXCU6lSXnFRiv45F/gVN5vb4Q16me0Mh0V4VwwDnZ3rV5SS57sbU4279Yv3NfF5+01EVjyjb8U4OlHYtnsA6NK0/tye9Lw0sl6I7Og004Me1u89ZV8l+aWULzWAAAAAAAAAAACHma7H7y/U8/4krvopn0mG7BP32JZ8+XocK6aMHOGYKrK7hVoQ6vzp3jKPo2n+8fQfDmWttHyx3iZ3+alniYu0OlVlCSlCTjKMlKMk7OMk7pp8mmd2axaJi3ae7S+k9h88eOwNLESVqjTjVtoutg92TXg7J+p804tpI0uptjr27x8JdDFfmqzpzYmYbdhITaZ7yjaBkJeWSyeGSl4kZQhHrIu4Z6IlZaLESxlbl4/wB+Zsr16QhpWz22v0vMZ4eEYrD9XN0Za70pQavJ+Ek3ZcrLxO1quGxg00ZJ9rz+bRjy819vJe2+2ZljlS6ucac6cpayTa6udt7hzTimY8N1kafm5o3if0M1Obs3/YrZ6FClTe72YQUaMXxslbffi9fds6ui01rXnUZe89mjJfaOWG2nXaQAAAAAAAAAAAALGNp70Glx5ehzeLaadRpL0r37x8urZittaJYU+YzG07Ogw21OzlDH4d0Kya13qc1bepztpJfJrmi/w/iOTR5eenbzj1YZKReNpcixHRLmSq7sHh5076VOscVbvcGt5eSuexp4j0c05p3ifTb9VT7CzreyWQxwGEhhYz33G8pytbeqSd5NLkuSXcjx/EtbOrzzl229PhC5ipyxszFznNuxcGygSoyRQlLw0SLFRFvDLGVmSLESxlru3mLdHLsROLs3S3E+51JKH/JnT4ZSMmppE/H8GrLO1Jc66JMI5Y2dX7tKg0/zVGlFeyl7HoeM5NsEV85lWwR9527JMs66W/NfVRf+6Xd5d5zeGaH7Wee/sx+bbmybdIbej1EKapIAAAAAAAAAAAAAAhYnAqTvF2fwZ5/iHAMWptN6Ty2/JvpmmvSUGphZx4xv4rU8tqeB6vB/TzR6wsVzVssnJms1naYbe4YijiE7vNgy3eWSlQlKjJBogWKhYxSiVmRarLCWv7bZZPE4GrRpq9SSi4K6V5RnGSV+XA6nDc1cWore3Zqy13rMQjdGOx9ShSdOo11lSanXcXdQilaME+b4+rfcdjL/APQzxFfYr5tFZ+yr17utUKMYRUYq0UrJeB3qUilYrXsrzO87yuGaAAAAAAAAAAAAAAAABSxAt1aEZcYp/wB95V1GhwZ42yUiWVb2jtKJUy5fdlbwep5/U+GMduuG3L7p6x+7fXUTHdEq4WceMbrvWp5/U8E1eDrNd49Y6t1ctZWTkzExO0tqjQTuo4hMS8OJO6dxoJ3WaiNtJTKxMuUlrlbhQlUkoQV5P4d7fgi/pMFs14rRha0VjeW25fgo0oKEfOT5uXNs9xptPXBSKV/9c+1ptO8pRYYgAAAAAAAAAAAAAAAAAAAAKMC1Vw8Zfain8/cp6jQafUR/MpE/VnW9q9pRKuW/hlbwepwNV4Yxz1w22909f7t1dRPnCJVws48Y3XetTz+p4Jq8HWa80esdW+uak+awcuaTHSW1RohlCzVRnVkszTeiV23ZJc2y7grN7RWvWZa7TEdZbBlOXqlG71nL7T7l+FHvuHaCumx9fanv+zn5Mk3lkDpNQAAAAAAAAAAAAAAAAAAAAAAAAAKWAtVsPCXGKfz9ynqNBp8/+ZSJ+v4sq3tXtKHVyz8MmvB6/E4Gp8MY7dcNuX3T1hYrqZjugSwNVu24/O6t73ORPh/WRfl5d/fv0b41FNmQwGXKD3pdqfLuXken4Xwimk+/brb6fBVy5pv0jsyCO20KgAAAAAAAAAAAAAAAAAAAAAAAAAAAAAAAAAAAAAAAAAAAAAAAAAAAAAAAAAAAAAAAAAAAAAAAAAAAAAAAAAAAAAAAAAAAAAAAAAAAAAAAAAAAAAAAAAAAAAAAAAAAAAAAAAAAAAAAAAAAAAAAAAAAAAAAAAAAAAAAAAAAAAAAAAAAAAAAAAAAB//Z;" vertex="1" parent="7">
                    <mxGeometry x="37.5" y="80" width="92.5" height="92.5" as="geometry"/>
                </mxCell>
            </root>
        </mxGraphModel>
    </diagram>
</mxfile>